<?xml version="1.0" ?><svg width="200px" height="200px" viewBox="0 0 200 200" id="Layer_1" style="enable-background:new 0 0 200 200;" version="1.1" xml:space="preserve" xmlns="http://www.w3.org/2000/svg" xmlns:xlink="http://www.w3.org/1999/xlink"><style type="text/css">
	.st0{fill:#71A517;}
	.st1{fill:#FAD50A;}
	.st2{fill:#FAD50A;stroke:#2B2B2B;stroke-width:5;stroke-linecap:round;stroke-linejoin:round;stroke-miterlimit:10;}
	.st3{fill:#FFFFFF;stroke:#2B2B2B;stroke-width:5;stroke-linecap:round;stroke-linejoin:round;stroke-miterlimit:10;}
	.st4{fill:#7B3D72;}
	.st5{fill:#F2433B;}
	.st6{fill:#F2433B;stroke:#2B2B2B;stroke-width:6;stroke-linecap:round;stroke-linejoin:round;stroke-miterlimit:10;}
	.st7{fill:#FFFFFF;stroke:#2B2B2B;stroke-width:6;stroke-linecap:round;stroke-linejoin:round;stroke-miterlimit:10;}
	.st8{fill:#DE3727;stroke:#2B2B2B;stroke-width:6;stroke-linecap:round;stroke-linejoin:round;stroke-miterlimit:10;}
	.st9{fill:#8EBF04;}
	.st10{fill:#8EBF04;stroke:#2B2B2B;stroke-width:6;stroke-linecap:round;stroke-linejoin:round;stroke-miterlimit:10;}
	.st11{fill:#003A52;}
	.st12{fill:#7B3D72;stroke:#2B2B2B;stroke-width:6;stroke-linecap:round;stroke-linejoin:round;stroke-miterlimit:10;}
	.st13{fill:#2B2B2B;}
	.st14{fill:none;stroke:#2B2B2B;stroke-width:6;stroke-linecap:round;stroke-linejoin:round;stroke-miterlimit:10;}
	.st15{fill:#F78D0F;}
	.st16{fill:#F78D0F;stroke:#2B2B2B;stroke-width:6;stroke-linecap:round;stroke-linejoin:round;stroke-miterlimit:10;}
</style><g><circle class="st5" cx="100" cy="100" r="78.6"/><path class="st6" d="M130.2,53c-11.8-0.5-24.8,6.1-30,10.7c-0.1-0.1-0.1-0.1-0.2-0.2c-0.1,0.1-0.2,0.1-0.2,0.2   c-5.2-4.7-18.2-11.2-30-10.7c-34,1.3-49.2,86.4,28,98.1c0,0,1,0.1,2.2,0.1c1.2,0,2.2-0.1,2.2-0.1C179.4,139.4,164.3,54.3,130.2,53z   "/><path class="st7" d="M127.7,62.9c-9.8-0.4-23.2,7.4-27.5,11c-0.1,0-0.1-0.1-0.2-0.2c-0.1,0.1-0.1,0.1-0.2,0.2   c-4.3-3.6-17.8-11.3-27.6-11c-28.3,1-38.1,69.4,26,78.5c0,0,0.8,0.1,1.8,0.1c1,0,1.8-0.1,1.8-0.1C165.9,132.3,156,63.9,127.7,62.9z   "/><g><path class="st7" d="M107.4,93.5c0,0,5.1,7.7-2.8,13"/><path class="st7" d="M92.6,93.5c0,0-5.1,7.7,2.8,13"/></g><path class="st7" d="M94.5,61c0,0-5.5-6.5-3.1-12c3.5-8.3,14.8-7.2,15.6-11.1C111.6,42.6,109.6,58.4,94.5,61z"/></g></svg>